<?xml version="1.0" encoding="iso-8859-1"?>
<!-- Generator: Adobe Illustrator 18.1.1, SVG Export Plug-In . SVG Version: 6.00 Build 0)  -->
<svg xmlns="http://www.w3.org/2000/svg" xmlns:xlink="http://www.w3.org/1999/xlink" version="1.1" id="Capa_1" x="0px" y="0px" viewBox="0 0 424 424" style="enable-background:new 0 0 424 424;" xml:space="preserve" width="512px" height="512px">
<g>
	<g>
		<path d="M35,89C15,89,0,74,0,54s15-36,35-36h353c20,0,36,16,36,36s-16,35-36,35H35z" fill="#011638"/>
		<path d="M388,176c20,0,36,16,36,36s-16,35-36,35H35c-20,0-35-15-35-35s15-36,35-36H388z" fill="#011638"/>
		<path d="M388,335c20,0,36,15,36,35s-16,36-36,36H35c-20,0-35-16-35-36s15-35,35-35H388z" fill="#011638"/>
	</g>
</g>
<g>
</g>
<g>
</g>
<g>
</g>
<g>
</g>
<g>
</g>
<g>
</g>
<g>
</g>
<g>
</g>
<g>
</g>
<g>
</g>
<g>
</g>
<g>
</g>
<g>
</g>
<g>
</g>
<g>
</g>
</svg>
